<mxfile host="app.diagrams.net" modified="2023-04-27T19:57:20.737Z" agent="Mozilla/5.0 (Windows NT 10.0; Win64; x64) AppleWebKit/537.36 (KHTML, like Gecko) Chrome/112.0.0.0 Safari/537.36 Edg/112.0.1722.58" etag="WPKNen5BgHiBO4eOT_Gc" version="21.2.3" type="google">
  <diagram name="Page-1" id="BW_qqevntshPCxgYaYqq">
    <mxGraphModel grid="0" page="1" gridSize="10" guides="1" tooltips="1" connect="1" arrows="1" fold="1" pageScale="1" pageWidth="827" pageHeight="1169" math="0" shadow="0">
      <root>
        <mxCell id="0" />
        <mxCell id="1" parent="0" />
        <mxCell id="VUF_xoFhV2R0qOF_FzQn-16" style="edgeStyle=orthogonalEdgeStyle;rounded=0;orthogonalLoop=1;jettySize=auto;html=1;exitX=0.5;exitY=1;exitDx=0;exitDy=0;entryX=0.5;entryY=0;entryDx=0;entryDy=0;endArrow=classic;endFill=1;" edge="1" parent="1" source="VUF_xoFhV2R0qOF_FzQn-2" target="VUF_xoFhV2R0qOF_FzQn-3">
          <mxGeometry relative="1" as="geometry" />
        </mxCell>
        <mxCell id="VUF_xoFhV2R0qOF_FzQn-2" value="Start" style="rounded=1;whiteSpace=wrap;html=1;arcSize=50;" vertex="1" parent="1">
          <mxGeometry x="340" y="40" width="120" height="60" as="geometry" />
        </mxCell>
        <mxCell id="VUF_xoFhV2R0qOF_FzQn-17" style="edgeStyle=orthogonalEdgeStyle;rounded=0;orthogonalLoop=1;jettySize=auto;html=1;exitX=0.5;exitY=1;exitDx=0;exitDy=0;entryX=0.5;entryY=0;entryDx=0;entryDy=0;endArrow=classic;endFill=1;" edge="1" parent="1" source="VUF_xoFhV2R0qOF_FzQn-3" target="VUF_xoFhV2R0qOF_FzQn-8">
          <mxGeometry relative="1" as="geometry" />
        </mxCell>
        <mxCell id="VUF_xoFhV2R0qOF_FzQn-3" value="Input N" style="shape=parallelogram;perimeter=parallelogramPerimeter;whiteSpace=wrap;html=1;fixedSize=1;" vertex="1" parent="1">
          <mxGeometry x="340" y="140" width="120" height="60" as="geometry" />
        </mxCell>
        <mxCell id="VUF_xoFhV2R0qOF_FzQn-19" style="edgeStyle=orthogonalEdgeStyle;rounded=0;orthogonalLoop=1;jettySize=auto;html=1;exitX=0.5;exitY=1;exitDx=0;exitDy=0;entryX=0.5;entryY=0;entryDx=0;entryDy=0;endArrow=classic;endFill=1;" edge="1" parent="1" source="VUF_xoFhV2R0qOF_FzQn-4" target="VUF_xoFhV2R0qOF_FzQn-7">
          <mxGeometry relative="1" as="geometry" />
        </mxCell>
        <mxCell id="VUF_xoFhV2R0qOF_FzQn-4" value="Initialize array A of size N + 1" style="rounded=0;whiteSpace=wrap;html=1;" vertex="1" parent="1">
          <mxGeometry x="310" y="360" width="180" height="60" as="geometry" />
        </mxCell>
        <mxCell id="VUF_xoFhV2R0qOF_FzQn-21" style="edgeStyle=orthogonalEdgeStyle;rounded=0;orthogonalLoop=1;jettySize=auto;html=1;exitX=0.5;exitY=1;exitDx=0;exitDy=0;entryX=0.5;entryY=0;entryDx=0;entryDy=0;endArrow=classic;endFill=1;" edge="1" parent="1" source="VUF_xoFhV2R0qOF_FzQn-5" target="VUF_xoFhV2R0qOF_FzQn-6">
          <mxGeometry relative="1" as="geometry" />
        </mxCell>
        <mxCell id="VUF_xoFhV2R0qOF_FzQn-34" style="edgeStyle=orthogonalEdgeStyle;rounded=0;orthogonalLoop=1;jettySize=auto;html=1;exitX=0;exitY=0.5;exitDx=0;exitDy=0;entryX=0;entryY=0.5;entryDx=0;entryDy=0;" edge="1" parent="1" source="VUF_xoFhV2R0qOF_FzQn-5" target="VUF_xoFhV2R0qOF_FzQn-11">
          <mxGeometry relative="1" as="geometry">
            <Array as="points">
              <mxPoint x="200" y="600" />
              <mxPoint x="200" y="810" />
            </Array>
          </mxGeometry>
        </mxCell>
        <mxCell id="VUF_xoFhV2R0qOF_FzQn-5" value="k &amp;lt;= N" style="rhombus;whiteSpace=wrap;html=1;" vertex="1" parent="1">
          <mxGeometry x="360" y="560" width="80" height="80" as="geometry" />
        </mxCell>
        <mxCell id="VUF_xoFhV2R0qOF_FzQn-32" style="edgeStyle=orthogonalEdgeStyle;rounded=0;orthogonalLoop=1;jettySize=auto;html=1;exitX=1;exitY=0.5;exitDx=0;exitDy=0;entryX=0.5;entryY=1;entryDx=0;entryDy=0;" edge="1" parent="1" source="VUF_xoFhV2R0qOF_FzQn-6" target="VUF_xoFhV2R0qOF_FzQn-28">
          <mxGeometry relative="1" as="geometry" />
        </mxCell>
        <mxCell id="VUF_xoFhV2R0qOF_FzQn-6" value="A[k] = 2 * A[k-1] + 3 * A[k-2]" style="rounded=0;whiteSpace=wrap;html=1;" vertex="1" parent="1">
          <mxGeometry x="310" y="680" width="180" height="60" as="geometry" />
        </mxCell>
        <mxCell id="VUF_xoFhV2R0qOF_FzQn-20" style="edgeStyle=orthogonalEdgeStyle;rounded=0;orthogonalLoop=1;jettySize=auto;html=1;exitX=0.5;exitY=1;exitDx=0;exitDy=0;entryX=0.5;entryY=0;entryDx=0;entryDy=0;endArrow=classic;endFill=1;" edge="1" parent="1" source="VUF_xoFhV2R0qOF_FzQn-7" target="VUF_xoFhV2R0qOF_FzQn-5">
          <mxGeometry relative="1" as="geometry" />
        </mxCell>
        <mxCell id="VUF_xoFhV2R0qOF_FzQn-7" value="Set A[1] = 3, A[2] = 7, k = 3" style="rounded=0;whiteSpace=wrap;html=1;" vertex="1" parent="1">
          <mxGeometry x="310" y="460" width="180" height="60" as="geometry" />
        </mxCell>
        <mxCell id="VUF_xoFhV2R0qOF_FzQn-18" style="edgeStyle=orthogonalEdgeStyle;rounded=0;orthogonalLoop=1;jettySize=auto;html=1;exitX=0.5;exitY=1;exitDx=0;exitDy=0;entryX=0.5;entryY=0;entryDx=0;entryDy=0;endArrow=classic;endFill=1;" edge="1" parent="1" source="VUF_xoFhV2R0qOF_FzQn-8" target="VUF_xoFhV2R0qOF_FzQn-4">
          <mxGeometry relative="1" as="geometry" />
        </mxCell>
        <mxCell id="VUF_xoFhV2R0qOF_FzQn-35" style="edgeStyle=orthogonalEdgeStyle;rounded=0;orthogonalLoop=1;jettySize=auto;html=1;exitX=0;exitY=0.5;exitDx=0;exitDy=0;" edge="1" parent="1" source="VUF_xoFhV2R0qOF_FzQn-8">
          <mxGeometry relative="1" as="geometry">
            <mxPoint x="400" y="120" as="targetPoint" />
            <Array as="points">
              <mxPoint x="200" y="280" />
              <mxPoint x="200" y="120" />
            </Array>
          </mxGeometry>
        </mxCell>
        <mxCell id="VUF_xoFhV2R0qOF_FzQn-8" value="N &amp;gt; 0" style="rhombus;whiteSpace=wrap;html=1;" vertex="1" parent="1">
          <mxGeometry x="360" y="240" width="80" height="80" as="geometry" />
        </mxCell>
        <mxCell id="VUF_xoFhV2R0qOF_FzQn-23" style="edgeStyle=orthogonalEdgeStyle;rounded=0;orthogonalLoop=1;jettySize=auto;html=1;exitX=0.5;exitY=1;exitDx=0;exitDy=0;entryX=0.5;entryY=0;entryDx=0;entryDy=0;endArrow=classic;endFill=1;" edge="1" parent="1" source="VUF_xoFhV2R0qOF_FzQn-11" target="VUF_xoFhV2R0qOF_FzQn-13">
          <mxGeometry relative="1" as="geometry" />
        </mxCell>
        <mxCell id="VUF_xoFhV2R0qOF_FzQn-11" value="Set i = 1" style="rounded=0;whiteSpace=wrap;html=1;" vertex="1" parent="1">
          <mxGeometry x="310" y="780" width="180" height="60" as="geometry" />
        </mxCell>
        <mxCell id="VUF_xoFhV2R0qOF_FzQn-24" style="edgeStyle=orthogonalEdgeStyle;rounded=0;orthogonalLoop=1;jettySize=auto;html=1;exitX=0.5;exitY=1;exitDx=0;exitDy=0;entryX=0.5;entryY=0;entryDx=0;entryDy=0;endArrow=classic;endFill=1;" edge="1" parent="1" source="VUF_xoFhV2R0qOF_FzQn-13" target="VUF_xoFhV2R0qOF_FzQn-14">
          <mxGeometry relative="1" as="geometry" />
        </mxCell>
        <mxCell id="VUF_xoFhV2R0qOF_FzQn-31" style="edgeStyle=orthogonalEdgeStyle;rounded=0;orthogonalLoop=1;jettySize=auto;html=1;exitX=0;exitY=0.5;exitDx=0;exitDy=0;entryX=0;entryY=0.5;entryDx=0;entryDy=0;" edge="1" parent="1" source="VUF_xoFhV2R0qOF_FzQn-13" target="VUF_xoFhV2R0qOF_FzQn-15">
          <mxGeometry relative="1" as="geometry">
            <Array as="points">
              <mxPoint x="200" y="920" />
              <mxPoint x="200" y="1130" />
            </Array>
          </mxGeometry>
        </mxCell>
        <mxCell id="VUF_xoFhV2R0qOF_FzQn-13" value="i &amp;lt;= N" style="rhombus;whiteSpace=wrap;html=1;" vertex="1" parent="1">
          <mxGeometry x="360" y="880" width="80" height="80" as="geometry" />
        </mxCell>
        <mxCell id="VUF_xoFhV2R0qOF_FzQn-29" style="edgeStyle=orthogonalEdgeStyle;rounded=0;orthogonalLoop=1;jettySize=auto;html=1;exitX=1;exitY=0.5;exitDx=0;exitDy=0;entryX=0.5;entryY=1;entryDx=0;entryDy=0;" edge="1" parent="1" source="VUF_xoFhV2R0qOF_FzQn-14" target="VUF_xoFhV2R0qOF_FzQn-27">
          <mxGeometry relative="1" as="geometry" />
        </mxCell>
        <mxCell id="VUF_xoFhV2R0qOF_FzQn-14" value="Output A[i]" style="shape=parallelogram;perimeter=parallelogramPerimeter;whiteSpace=wrap;html=1;fixedSize=1;" vertex="1" parent="1">
          <mxGeometry x="340" y="1000" width="120" height="60" as="geometry" />
        </mxCell>
        <mxCell id="VUF_xoFhV2R0qOF_FzQn-15" value="End" style="rounded=1;whiteSpace=wrap;html=1;arcSize=50;" vertex="1" parent="1">
          <mxGeometry x="340" y="1100" width="120" height="60" as="geometry" />
        </mxCell>
        <mxCell id="VUF_xoFhV2R0qOF_FzQn-30" style="edgeStyle=orthogonalEdgeStyle;rounded=0;orthogonalLoop=1;jettySize=auto;html=1;exitX=0.5;exitY=0;exitDx=0;exitDy=0;" edge="1" parent="1" source="VUF_xoFhV2R0qOF_FzQn-27">
          <mxGeometry relative="1" as="geometry">
            <mxPoint x="400" y="860" as="targetPoint" />
            <Array as="points">
              <mxPoint x="595" y="860" />
              <mxPoint x="440" y="860" />
            </Array>
          </mxGeometry>
        </mxCell>
        <mxCell id="VUF_xoFhV2R0qOF_FzQn-27" value="Set i = i + 1" style="rounded=0;whiteSpace=wrap;html=1;" vertex="1" parent="1">
          <mxGeometry x="540" y="918" width="110" height="60" as="geometry" />
        </mxCell>
        <mxCell id="VUF_xoFhV2R0qOF_FzQn-33" style="edgeStyle=orthogonalEdgeStyle;rounded=0;orthogonalLoop=1;jettySize=auto;html=1;exitX=0.5;exitY=0;exitDx=0;exitDy=0;" edge="1" parent="1" source="VUF_xoFhV2R0qOF_FzQn-28">
          <mxGeometry relative="1" as="geometry">
            <mxPoint x="400" y="540" as="targetPoint" />
            <Array as="points">
              <mxPoint x="595" y="540" />
            </Array>
          </mxGeometry>
        </mxCell>
        <mxCell id="VUF_xoFhV2R0qOF_FzQn-28" value="Set k = k + 1" style="rounded=0;whiteSpace=wrap;html=1;" vertex="1" parent="1">
          <mxGeometry x="540" y="600" width="110" height="60" as="geometry" />
        </mxCell>
        <mxCell id="VUF_xoFhV2R0qOF_FzQn-36" value="true" style="text;html=1;align=center;verticalAlign=middle;resizable=0;points=[];autosize=1;strokeColor=none;fillColor=none;" vertex="1" parent="1">
          <mxGeometry x="400" y="640" width="40" height="30" as="geometry" />
        </mxCell>
        <mxCell id="VUF_xoFhV2R0qOF_FzQn-37" value="false" style="text;html=1;align=center;verticalAlign=middle;resizable=0;points=[];autosize=1;strokeColor=none;fillColor=none;" vertex="1" parent="1">
          <mxGeometry x="310" y="570" width="50" height="30" as="geometry" />
        </mxCell>
        <mxCell id="VUF_xoFhV2R0qOF_FzQn-38" value="true" style="text;html=1;align=center;verticalAlign=middle;resizable=0;points=[];autosize=1;strokeColor=none;fillColor=none;" vertex="1" parent="1">
          <mxGeometry x="400" y="960" width="40" height="30" as="geometry" />
        </mxCell>
        <mxCell id="VUF_xoFhV2R0qOF_FzQn-39" value="false" style="text;html=1;align=center;verticalAlign=middle;resizable=0;points=[];autosize=1;strokeColor=none;fillColor=none;" vertex="1" parent="1">
          <mxGeometry x="310" y="888" width="50" height="30" as="geometry" />
        </mxCell>
        <mxCell id="VUF_xoFhV2R0qOF_FzQn-40" value="true" style="text;html=1;align=center;verticalAlign=middle;resizable=0;points=[];autosize=1;strokeColor=none;fillColor=none;" vertex="1" parent="1">
          <mxGeometry x="400" y="320" width="40" height="30" as="geometry" />
        </mxCell>
        <mxCell id="VUF_xoFhV2R0qOF_FzQn-41" value="false" style="text;html=1;align=center;verticalAlign=middle;resizable=0;points=[];autosize=1;strokeColor=none;fillColor=none;" vertex="1" parent="1">
          <mxGeometry x="310" y="250" width="50" height="30" as="geometry" />
        </mxCell>
      </root>
    </mxGraphModel>
  </diagram>
</mxfile>
